<?xml version="1.0" encoding="UTF-8" standalone="no"?>
<!-- Created with Inkscape (http://www.inkscape.org/) -->

<svg
   xmlns:dc="http://purl.org/dc/elements/1.1/"
   xmlns:cc="http://creativecommons.org/ns#"
   xmlns:rdf="http://www.w3.org/1999/02/22-rdf-syntax-ns#"
   xmlns:svg="http://www.w3.org/2000/svg"
   xmlns="http://www.w3.org/2000/svg"
   xmlns:sodipodi="http://sodipodi.sourceforge.net/DTD/sodipodi-0.dtd"
   xmlns:inkscape="http://www.inkscape.org/namespaces/inkscape"
   width="56.444447mm"
   height="56.444447mm"
   viewBox="0 0 200 200.00001"
   id="svg2"
   version="1.1"
   inkscape:version="0.91 r"
   sodipodi:docname="bull.svg"
   inkscape:export-filename="/home/ravetcofx/Pictures/Self Work/No BS Repairs/bull.png"
   inkscape:export-xdpi="366.95001"
   inkscape:export-ydpi="366.95001">
  <defs
     id="defs4" />
  <sodipodi:namedview
     id="base"
     pagecolor="#ffffff"
     bordercolor="#666666"
     borderopacity="1.0"
     inkscape:pageopacity="0.0"
     inkscape:pageshadow="2"
     inkscape:zoom="2.8284271"
     inkscape:cx="-43.841083"
     inkscape:cy="4.2769324"
     inkscape:document-units="px"
     inkscape:current-layer="layer1"
     showgrid="false"
     inkscape:snap-object-midpoints="true"
     inkscape:snap-center="true"
     fit-margin-top="0"
     fit-margin-left="0"
     fit-margin-right="0"
     fit-margin-bottom="0"
     inkscape:window-width="3840"
     inkscape:window-height="2049"
     inkscape:window-x="0"
     inkscape:window-y="0"
     inkscape:window-maximized="1" />
  <metadata
     id="metadata7">
    <rdf:RDF>
      <cc:Work
         rdf:about="">
        <dc:format>image/svg+xml</dc:format>
        <dc:type
           rdf:resource="http://purl.org/dc/dcmitype/StillImage" />
        <dc:title></dc:title>
      </cc:Work>
    </rdf:RDF>
  </metadata>
  <g
     inkscape:label="Layer 1"
     inkscape:groupmode="layer"
     id="layer1"
     transform="translate(-121.17403,-290.19913)">
    <rect
       style="fill:#ffffff;fill-opacity:1;stroke:none;stroke-width:1.70000005;stroke-miterlimit:4;stroke-dasharray:none;stroke-opacity:1"
       id="rect5085"
       width="200.00002"
       height="200.00002"
       x="121.17402"
       y="290.19913" />
    <g
       transform="translate(77.857143,-182.85718)"
       id="layer1-1"
       inkscape:label="Layer 1" />
    <path
       id="path5083"
       style="color:#000000;clip-rule:nonzero;display:inline;overflow:visible;visibility:visible;opacity:1;isolation:auto;mix-blend-mode:normal;color-interpolation:sRGB;color-interpolation-filters:linearRGB;solid-color:#000000;solid-opacity:1;fill:none;fill-opacity:1;fill-rule:evenodd;stroke:#000000;stroke-width:1.60631335;stroke-linecap:butt;stroke-linejoin:miter;stroke-miterlimit:4;stroke-dasharray:none;stroke-dashoffset:0;stroke-opacity:1;color-rendering:auto;image-rendering:auto;shape-rendering:auto;text-rendering:auto;enable-background:accumulate"
       d="m 199.68647,488.03954 50.50891,-45.12062 m -100.85651,-60.86766 10.07581,8.0635 m 120.01025,-60.70884 c 0,0.31013 4.58809,17.13493 4.58809,17.13493 m -32.2966,9.30404 32.65646,-9.38157 m -5.75762,-17.67767 15.47359,3.64407 m -12.86014,-23.76614 13.04007,23.45601 m -131.07566,-2.94628 6.38736,33.26194 m -22.40072,-30.78086 16.46318,-2.63614 m -0.0888,-0.16183 -10.36896,-23.82128 m 0.25445,-0.43859 c 1.52672,1.42544 7.37914,4.60526 7.37914,4.60526 m 81.59773,84.20328 9.16496,49.41316 m -44.13419,0.11439 13.68181,-28.99566 m -29.77596,29.00937 59.1285,-0.27413 m 0.0393,-0.0284 -7.78178,45.70608 m -51.29772,-45.70608 7.78179,45.70608 m -35.60542,-79.0384 56.90204,4.16666 m 0.60432,-0.32895 -9.60559,-62.5 m 67.94861,58.30625 -36.70479,-16.20454 m -72.64211,-28.53237 -6.16245,44.5043 m 85.85584,-24.52101 -19.65649,-33.7171 m -60.84663,12.41573 -47.49939,44.56966 37.78342,-17.58795 m 30.99517,53.63984 81.61578,-80.64693 m -102.3552,0.18046 81.76705,80.41568 m -35.19272,44.57324 10.16578,0 m -57.09996,-124.83386 -10.07583,26.51651 3.95837,19.22834 27.34866,34.73507 -0.71971,33.1844 8.63642,11.47498 20.51149,-0.31014 m -28.30568,-131.6888 19.59288,-5.70176 11.95929,-0.2193 0,0 m -53.12614,12.53116 -21.90981,-31.03078 5.81881,-27.15411 16.41249,-13.48062 -8.86749,17.57535 2.69614,20.23668 27.94893,27.09388 z m 103.47651,-0.0606 47.49939,44.56965 -37.78342,-17.58795 m -61.27235,23.03445 9.6056,-62.5 m 41.92395,13.80194 6.16246,44.5043 m -6.32919,-45.51224 10.07583,26.51651 -3.95836,19.22834 -27.34866,34.73507 0.7197,33.1844 -8.63642,11.47498 -20.51149,-0.31014 m 28.30568,-131.6888 -19.59287,-5.70176 -11.95929,-0.2193 0,0 m 53.12614,12.53116 21.9098,-31.03078 -5.81881,-27.15411 -16.41249,-13.48062 8.86749,17.57535 -2.69614,20.23668 -27.94893,27.09388 z"
       inkscape:connector-curvature="0" />
  </g>
</svg>
